<?xml version="1.0" encoding="utf-8"?>
<!-- Generator: Adobe Illustrator 17.0.2, SVG Export Plug-In . SVG Version: 6.00 Build 0)  -->
<!DOCTYPE svg PUBLIC "-//W3C//DTD SVG 1.1//EN" "http://www.w3.org/Graphics/SVG/1.1/DTD/svg11.dtd">
<svg version="1.1" id="Layer_1" xmlns="http://www.w3.org/2000/svg" xmlns:xlink="http://www.w3.org/1999/xlink" x="0px" y="0px"
	 width="32px" height="32px" viewBox="0 0 32 32" enable-background="new 0 0 32 32" xml:space="preserve">
<path fill-rule="evenodd" clip-rule="evenodd" fill="#1C1C1C" d="M24.031,16.717C25.825,15.449,27,13.364,27,11c0-3.866-3.134-7-7-7
	s-7,3.134-7,7c0,2.364,1.175,4.449,2.969,5.717C11.328,18.374,8,22.79,8,28h24C32,22.79,28.672,18.374,24.031,16.717z M14,11
	c0-3.314,2.686-6,6-6s6,2.686,6,6c0,2.322-1.321,4.332-3.251,5.329c-0.193,0.1-0.392,0.187-0.596,0.266
	c-0.034,0.013-0.069,0.025-0.103,0.038c-0.17,0.062-0.345,0.116-0.522,0.163c-0.053,0.014-0.106,0.029-0.16,0.041
	c-0.166,0.039-0.336,0.069-0.508,0.094c-0.058,0.008-0.116,0.02-0.174,0.027C20.461,16.984,20.232,17,20,17
	s-0.461-0.016-0.686-0.042c-0.059-0.007-0.116-0.018-0.174-0.027c-0.171-0.025-0.341-0.055-0.508-0.094
	c-0.054-0.013-0.107-0.027-0.16-0.041c-0.177-0.047-0.352-0.101-0.522-0.163c-0.034-0.013-0.069-0.025-0.103-0.038
	c-0.204-0.079-0.403-0.166-0.596-0.266C15.321,15.332,14,13.322,14,11z M17.14,17.385C18.014,17.777,18.98,18,20,18
	s1.986-0.223,2.86-0.615c4.374,1.177,7.671,4.977,8.09,9.615H9.05C9.469,22.362,12.766,18.562,17.14,17.385z"/>
<path fill-rule="evenodd" clip-rule="evenodd" fill="#1C1C1C" d="M1.05,27c0.419-4.638,3.715-8.438,8.09-9.615
	C10.014,17.777,10.98,18,12,18c0.148,0,0.293-0.015,0.439-0.024c0.785-0.513,1.632-0.939,2.529-1.26
	c-0.136-0.096-0.261-0.206-0.39-0.311c-0.14,0.066-0.28,0.134-0.426,0.19c-0.034,0.013-0.069,0.025-0.103,0.038
	c-0.17,0.062-0.345,0.116-0.522,0.163c-0.053,0.014-0.106,0.029-0.16,0.041c-0.166,0.039-0.336,0.069-0.508,0.094
	c-0.058,0.008-0.116,0.02-0.174,0.027C12.461,16.984,12.232,17,12,17s-0.461-0.016-0.686-0.042
	c-0.059-0.007-0.116-0.018-0.174-0.027c-0.171-0.025-0.341-0.055-0.508-0.094c-0.054-0.013-0.107-0.027-0.16-0.041
	c-0.177-0.047-0.352-0.101-0.522-0.163c-0.034-0.013-0.069-0.025-0.103-0.038c-0.204-0.079-0.403-0.166-0.596-0.266
	C7.321,15.332,6,13.322,6,11c0-3.314,2.686-6,6-6c0.92,0,1.788,0.213,2.568,0.583c0.291-0.239,0.605-0.45,0.932-0.639
	C14.47,4.347,13.276,4,12,4c-3.866,0-7,3.134-7,7c0,2.364,1.175,4.449,2.969,5.717C3.328,18.374,0,22.79,0,28h7
	c0-0.337,0.015-0.67,0.042-1H1.05z"/>
</svg>
