<?xml version="1.0" encoding="UTF-8" standalone="no"?>
<svg width="296px" height="128px" viewBox="0 0 296 128" version="1.1" xmlns="http://www.w3.org/2000/svg" xmlns:xlink="http://www.w3.org/1999/xlink">
    <!-- Generator: sketchtool 3.8.3 (29802) - http://www.bohemiancoding.com/sketch -->
    <title>7A1FF364-E0F6-4B92-ABC5-A157E4F892A8</title>
    <desc>Created with sketchtool.</desc>
    <defs></defs>
    <g id="Page-1" stroke="none" stroke-width="1" fill="none" fill-rule="evenodd">
        <g id="web" transform="translate(-572.000000, -149.000000)" fill="#00E6D2">
            <g id="swag_icon" transform="translate(570.000000, 148.000000)">
                <g transform="translate(2.000000, 1.000000)">
                    <path d="M171.149686,52.1714118 C171.65032,48.3914118 172.025795,45.3464118 172.272636,43.0364118 C172.52643,40.7264118 172.710691,38.8784118 172.83585,37.4924118 C172.961008,36.1064118 173.044447,35.0774118 173.089643,34.4054118 C173.127886,33.7334118 173.148746,33.1454118 173.148746,32.6414118 C175.485039,35.4974118 177.320698,38.6684118 178.655723,42.1544118 C179.990747,45.6404118 181.367492,48.9794118 182.789432,52.1714118 L171.149686,52.1714118 Z M275.278133,42.7844118 C274.61062,41.2304118 273.779707,39.8654118 272.774962,38.6894118 C271.773693,37.5134118 270.688986,36.5894118 269.520839,35.9174118 C268.352692,35.2454118 267.226265,35.0774118 266.141558,35.4134118 C258.298288,36.5054118 250.955652,38.1014118 244.113651,40.2014118 C237.271649,42.3014118 230.513087,44.9054118 223.837964,48.0134118 C222.502939,48.6854118 221.668549,49.6724118 221.338269,50.9744118 C221.001036,52.2764118 221.021896,53.6834118 221.397372,55.1954118 C221.776324,56.7074118 222.4195,58.1984118 223.337329,59.6684118 C224.255159,61.1384118 225.298147,62.4194118 226.466294,63.5114118 C227.63444,64.6034118 228.886026,65.4014118 230.22105,65.9054118 C231.556075,66.4094118 232.765941,66.4094118 233.850649,65.9054118 C235.51943,64.7294118 237.167351,63.8474118 238.794412,63.2594118 C240.421473,62.6714118 242.065918,62.1254118 243.738175,61.6214118 C241.485321,64.7294118 238.606674,67.3964118 235.105711,69.6224118 C231.597795,71.8484118 227.846514,73.3394118 223.837964,74.0954118 C219.83289,74.0954118 216.891663,73.1714118 215.014285,71.3234118 C213.136907,69.4754118 212.01048,67.0814118 211.63848,64.1414118 C211.259528,61.2014118 211.468126,57.9464118 212.260797,54.3764118 C213.053468,50.8064118 214.159035,47.2574118 215.577499,43.7294118 C216.995962,40.2014118 218.560444,36.9464118 220.270945,33.9644118 C221.981445,30.9824118 223.54245,28.6514118 224.964391,26.9714118 C226.633172,24.9554118 228.385391,23.3384118 230.22105,22.1204118 C232.056709,20.9024118 234.351283,19.7894118 237.104771,18.7814118 C238.272918,18.1934118 239.461924,17.8574118 240.67179,17.7734118 C241.881656,17.6894118 243.32098,17.6474118 244.989761,17.6474118 C246.074468,17.5634118 247.120933,18.0254118 248.118725,19.0334118 C249.119993,20.0414118 250.183841,21.1124118 251.313745,22.2464118 C252.436695,23.3804118 253.646561,24.3044118 254.943343,25.0184118 C256.233172,25.7324118 257.755934,25.7114118 259.508154,24.9554118 C260.259105,24.4514118 260.73888,23.6744118 260.947477,22.6244118 C261.156075,21.5744118 261.156075,20.4614118 260.947477,19.2854118 C260.73888,18.1094118 260.384264,16.9754118 259.88363,15.8834118 C259.382995,14.7914118 258.840642,13.9934118 258.256568,13.4894118 C255.753397,9.28941176 252.707872,6.11841176 249.119993,3.97641176 C245.532115,1.83441176 241.714778,0.637411765 237.667985,0.385411765 C233.621191,0.133411765 229.532678,0.784411765 225.402446,2.33841176 C221.272213,3.89241176 217.413157,6.22341176 213.825279,9.33141176 C210.904912,12.0194118 208.318302,15.6104118 206.065448,20.1044118 C203.81607,24.5984118 201.952598,29.3864118 200.495892,34.4684118 C199.035709,39.5504118 197.992721,44.5904118 197.366928,49.5884118 C197.001882,52.5004118 196.83848,55.1674118 196.824574,57.6384118 C195.40611,54.3169118 194.091945,50.9289118 192.927275,47.4464118 C191.592251,43.4564118 190.298946,39.4244118 189.043883,35.3504118 C187.795774,31.2764118 186.39817,27.3074118 184.851072,23.4434118 C183.307449,19.5794118 181.51351,15.9254118 179.47273,12.4814118 C177.428473,9.03741176 174.946162,5.88741176 172.025795,3.03141176 C170.77421,2.35941176 169.122812,2.10741176 167.082032,2.27541176 C165.034299,2.44341176 163.389855,3.11541176 162.134792,4.29141176 C160.382573,7.65141176 159.322201,11.3264118 158.943249,15.3164118 C158.57125,19.3064118 158.380036,23.3804118 158.380036,27.5384118 C158.380036,31.6964118 158.300073,35.8124118 158.133195,39.8864118 C157.96284,43.9604118 157.211889,47.7614118 155.876864,51.2894118 C153.627487,50.7014118 151.412876,50.0924118 149.243461,49.4624118 C149.111349,49.4239118 148.982714,49.3679118 148.850602,49.3259118 C148.937517,48.8604118 149.03834,48.3494118 149.121779,47.8874118 C150.289925,41.8394118 150.74884,35.9384118 150.498523,30.1844118 C150.244729,24.4304118 149.785814,18.5294118 149.121779,12.4814118 C148.621144,10.2974118 147.599016,7.98741176 146.055394,5.55141176 C144.511772,3.11541176 142.655253,1.30941176 140.485838,0.133411765 C139.063897,-0.118588235 137.982667,-0.0135882353 137.231715,0.448411765 C136.477287,0.910411765 135.91755,1.56141176 135.542075,2.40141176 C135.163122,3.24141176 134.958001,4.18641176 134.916282,5.23641176 C134.871086,6.28641176 134.853702,7.23141176 134.853702,8.07141176 C136.021849,14.7074118 136.310409,21.5324118 135.729812,28.5464118 C135.256991,34.2269118 134.234863,39.7814118 132.72253,45.2134118 C132.427017,45.4129118 132.128027,45.5879118 131.84642,45.8714118 C129.930799,47.2154118 129.054689,48.9164118 129.218091,50.9744118 C129.343249,52.4549118 129.8265,53.9074118 130.487059,55.3459118 C130.12549,56.5464118 129.770874,57.7504118 129.346726,58.9754118 C128.762652,60.1514118 128.112523,61.6424118 127.406768,63.4484118 C126.697536,65.2544118 125.50853,66.7454118 123.839749,67.9214118 C123.839749,68.1734118 123.672871,68.3204118 123.339115,68.3624118 C123.001882,68.4044118 122.605546,68.3624118 122.150108,68.2364118 C121.687717,68.1104118 121.291382,67.9004118 120.957625,67.6064118 C120.627346,67.3124118 120.460468,67.0394118 120.460468,66.7874118 C119.956357,66.1994118 119.66432,65.4014118 119.584358,64.3934118 C119.500919,63.3854118 119.459199,62.3354118 119.459199,61.2434118 C119.956357,59.5634118 119.810339,57.7154118 119.021144,55.6994118 C118.224997,53.6834118 117.289784,51.8354118 116.2016,50.1554118 C115.871321,49.5674118 115.266387,48.9164118 114.390278,48.2024118 C113.514168,47.4884118 112.572002,46.8794118 111.57421,46.3754118 C110.572941,45.8714118 109.571673,45.6194118 108.570404,45.6194118 C107.569136,45.6194118 106.772988,46.0394118 106.188915,46.8794118 C104.520134,50.1554118 102.872213,53.4314118 101.248628,56.7074118 C99.6215672,59.9834118 97.9701695,62.9654118 96.3048653,65.6534118 C95.720792,64.4774118 95.3835592,63.1334118 95.3035968,61.6214118 C95.2166811,60.1094118 95.1749616,58.5134118 95.1749616,56.8334118 C94.5908883,51.7934118 94.3023283,46.9844118 94.3023283,42.4064118 C94.3023283,37.8284118 94.5908883,33.0194118 95.1749616,27.9794118 C95.3418397,26.7194118 95.1367187,25.3334118 94.5526454,23.8214118 C93.9685721,22.3094118 93.1759012,20.8814118 92.1746327,19.5374118 C91.1733642,18.1934118 90.0677969,17.0384118 88.8579308,16.0724118 C87.6445881,15.1064118 86.4799181,14.4974118 85.3534911,14.2454118 C84.227064,13.9934118 83.2466553,14.2244118 82.4122648,14.9384118 C81.5778744,15.6524118 81.0772402,17.0174118 80.9103621,19.0334118 C80.3262888,25.7534118 80.0759717,32.4314118 80.1594107,39.0674118 C80.1837471,40.9679118 80.3401953,42.8684118 80.4479707,44.7724118 C78.2785557,43.1484118 75.9665989,41.6749118 73.3382691,40.5164118 C69.6252317,38.8784118 65.7453163,37.5554118 61.7019994,36.5474118 C57.6517293,35.5394118 53.9595517,34.4894118 50.62199,33.3974118 C48.8697701,32.7254118 47.4095869,32.0954118 46.2414403,31.5074118 C45.0698171,30.9194118 43.9468667,30.0374118 42.8656358,28.8614118 C43.3627934,28.8614118 43.8634276,28.6934118 44.3640619,28.3574118 C44.614379,28.1894118 44.8229766,27.9794118 44.9898547,27.7274118 C48.4108554,25.4594118 52.0022108,23.5694118 55.7569677,22.0574118 C59.5082479,20.5454118 63.3881634,19.7894118 67.3932374,19.7894118 C68.8951401,19.6214118 69.9381281,19.0124118 70.5222014,17.9624118 C71.1062747,16.9124118 71.3774516,15.6524118 71.3357321,14.1824118 C71.2905359,12.7124118 70.9602564,11.1374118 70.3344636,9.45741176 C69.7086708,7.77741176 68.8951401,6.26541176 67.8938716,4.92141176 C66.8926031,3.57741176 65.766176,2.48541176 64.5145904,1.64541176 C63.2630048,0.805411765 61.9696997,0.469411765 60.634675,0.637411765 C56.1289667,0.637411765 51.7066975,1.39341176 47.3678674,2.90541176 C43.0255606,4.41741176 38.8570851,6.34941176 34.8520111,8.70141176 C32.6825961,10.1294118 30.9720957,11.7884118 29.7205101,13.6784118 C28.4689245,15.5684118 27.6727769,17.5844118 27.3424974,19.7264118 C27.0087412,21.8684118 27.0921803,24.1154118 27.5928145,26.4674118 C28.0969254,28.8194118 29.0529978,31.1294118 30.4714615,33.3974118 C33.3083889,37.8494118 36.6459505,41.3984118 40.4841465,44.0444118 C44.3223424,46.6904118 48.4525749,49.1054118 52.8748441,51.2894118 C55.0442592,52.4654118 57.2553938,53.3684118 59.5082479,53.9984118 C61.7611021,54.6284118 63.9722367,55.2374118 66.1416517,55.8254118 C66.8091641,55.8254118 67.4140971,56.0144118 67.9564509,56.3924118 C68.4988047,56.7704118 69.0620182,56.9594118 69.6460915,56.9594118 C68.4779449,57.5474118 67.5601154,58.1144118 66.8926031,58.6604118 C66.2216142,59.2064118 65.682737,59.8154118 65.2655418,60.4874118 C63.5133219,61.5794118 61.7611021,62.6084118 60.0088822,63.5744118 C58.2566623,64.5404118 56.2089292,65.3594118 53.8795893,66.0314118 C51.7066975,67.1234118 49.5372825,67.9424118 47.3678674,68.4884118 C45.1949757,69.0344118 43.2793543,69.3074118 41.6105735,69.3074118 L34.8520111,69.3074118 C34.6051706,69.3074118 34.1844988,69.2444118 33.6039021,69.1184118 C33.0163522,68.9924118 32.4322789,68.8664118 31.8482056,68.7404118 C31.2641324,68.6144118 30.8260774,68.4884118 30.5340407,68.3624118 C30.2420041,68.2364118 30.2211443,68.1734118 30.4714615,68.1734118 C29.8873882,67.6694118 29.1364368,67.0394118 28.2186073,66.2834118 C27.3007779,65.5274118 26.3620887,64.9394118 25.4025397,64.5194118 C24.4464673,64.0994118 23.5043015,63.9524118 22.5899487,64.0784118 C21.6686426,64.2044118 20.9176912,64.8554118 20.3336179,66.0314118 C19.5027041,67.1234118 19.0403128,68.2784118 18.9603504,69.4964118 C18.8734347,70.7144118 19.019453,71.9324118 19.3984053,73.1504118 C19.7704044,74.3684118 20.2536555,75.5234118 20.8342522,76.6154118 C21.4218021,77.7074118 22.0058754,78.6734118 22.5899487,79.5134118 C24.8393262,82.2854118 27.5093755,84.4064118 30.59662,85.8764118 C33.6838646,87.3464118 36.9797067,88.2914118 40.4841465,88.7114118 C43.9885862,89.1314118 47.576465,89.1104118 51.2477828,88.6484118 C54.9191006,88.1864118 58.4235404,87.3674118 61.7611021,86.1914118 C64.5145904,85.3514118 67.6226947,84.0284118 71.085415,82.2224118 C74.5481352,80.4164118 77.7188188,78.2534118 80.5974657,75.7334118 C81.9707332,74.5294118 83.1910292,73.2519118 84.2792134,71.9079118 C84.6964086,73.4164118 85.1553233,74.9039118 85.6663875,76.3634118 C87.5854854,81.8234118 90.7526924,86.7794118 95.1749616,91.2314118 C95.7590349,91.4834118 96.4508836,91.8369118 97.2435545,92.3024118 C98.0362254,92.7644118 98.8045599,93.1214118 99.5589879,93.3734118 C100.309939,93.6254118 100.998311,93.7094118 101.624104,93.6254118 C102.249897,93.5414118 102.687952,93.0794118 102.938269,92.2394118 C104.603573,89.4674118 106.209775,86.7164118 107.756874,83.9864118 C109.300496,81.2564118 110.65638,78.5054118 111.824527,75.7334118 L113.952223,77.8754118 C115.287247,79.8074118 117.05685,81.5924118 119.271461,83.2304118 C121.482596,84.8684118 123.752833,86.0024118 126.092603,86.6324118 C128.42542,87.2624118 130.678274,87.2204118 132.847689,86.5064118 C135.017104,85.7924118 136.811043,84.0494118 138.232984,81.2774118 C139.901764,79.0094118 141.299368,76.5314118 142.422319,73.8434118 C143.385344,71.5509118 144.216258,69.1464118 144.96721,66.6684118 C145.825936,66.7419118 146.67771,66.8189118 147.557297,66.8504118 C148.767163,66.8924118 149.973552,67.0184118 151.186895,67.2284118 C152.393284,67.4384118 153.627487,67.9214118 154.875596,68.6774118 C155.042474,70.4414118 154.896456,72.8144118 154.437541,75.7964118 C153.982103,78.7784118 153.477992,82.0334118 152.939115,85.5614118 C152.393284,89.0894118 151.955229,92.6804118 151.62495,96.3344118 C151.287717,99.9884118 151.329437,103.369412 151.750108,106.477412 C152.163827,109.581912 153.085133,112.273412 154.503597,114.541412 C155.918584,116.809412 158.133195,118.279412 161.133524,118.951412 C162.468549,119.539412 163.515013,119.686412 164.265965,119.392412 C165.013439,119.098412 165.55927,118.573412 165.889549,117.817412 C166.223305,117.061412 166.41452,116.179412 166.452763,115.171412 C166.494482,114.163412 166.518819,113.281412 166.518819,112.525412 C166.098147,108.913412 165.997325,105.364412 166.202446,101.878412 C166.41452,98.3924118 166.744799,94.9484118 167.203714,91.5464118 C167.662629,88.1444118 168.14588,84.7634118 168.643038,81.4034118 C169.147149,78.0434118 169.519148,74.5994118 169.772941,71.0714118 C173.027064,71.0714118 176.531504,71.2394118 180.286261,71.5754118 C184.041017,71.9114118 187.837494,72.0794118 191.672213,72.0794118 C192.176324,72.9194118 192.756921,73.7804118 193.424433,74.6624118 C194.095422,75.5444118 194.842897,76.3634118 195.680764,77.1194118 C196.511678,77.8754118 197.412124,78.4844118 198.371673,78.9464118 C199.327745,79.4084118 200.349873,79.6394118 201.438058,79.6394118 C202.251588,79.3874118 202.832185,78.9464118 203.294576,78.4074118 C205.171955,81.0709118 207.36223,83.4194118 209.886261,85.4354118 C213.345504,88.2074118 217.308859,90.1394118 221.776324,91.2314118 C226.236836,92.3234118 230.972002,92.2394118 235.978344,90.9794118 C239.566223,89.8874118 243.174962,88.1234118 246.80456,85.6874118 C250.434158,83.2514118 253.458823,80.4164118 255.878556,77.1824118 C258.298288,73.9484118 259.86277,70.5254118 260.572002,66.9134118 C261.281234,63.3014118 260.509422,59.8154118 258.256568,56.4554118 C260.425983,55.8674118 262.824856,55.3214118 265.453186,54.8174118 C268.081515,54.3134118 270.522107,53.8094118 272.774962,53.3054118 C274.276864,52.9694118 275.298993,52.2344118 275.841346,51.1004118 C276.3837,49.9664118 276.592298,48.6854118 276.467139,47.2574118 C276.341981,45.8294118 275.945645,44.3384118 275.278133,42.7844118 L275.278133,42.7844118 Z" id="Fill-1"></path>
                    <path d="M295.193165,115.162827 C292.314519,111.669827 288.114753,108.698327 282.597347,106.251827 C277.07994,103.808827 270.599508,101.845327 263.163003,100.371827 C255.723022,98.8948268 247.49037,97.8098268 238.465047,97.1098268 C229.436247,96.4098268 219.958963,96.0423268 210.029717,96.0038268 C200.103948,95.9653268 189.907001,96.2173268 179.438878,96.7598268 C177.279893,96.8718268 175.145244,97.0188268 172.996689,97.1448268 C172.833288,98.8703268 172.61426,100.574827 172.516915,102.321327 C172.318747,105.807327 172.416092,109.356327 172.815904,112.968327 C172.815904,113.689327 172.795045,114.539827 172.756802,115.488327 C183.409186,115.117327 194.005944,114.889827 204.5436,114.816327 C215.369816,114.735827 225.865752,114.851327 236.034885,115.162827 C246.200542,115.474327 255.935096,115.995827 265.231596,116.734327 C274.531573,117.472827 283.108411,118.463327 290.962111,119.705827 C292.102444,119.859827 293.048087,119.821327 293.799038,119.590327 C294.546513,119.355827 295.102773,119.005827 295.464342,118.540327 C295.822435,118.074827 295.985836,117.532327 295.958023,116.909327 C295.926734,116.289827 295.67294,115.705327 295.193165,115.162827" id="Fill-4"></path>
                    <path d="M146.025941,106.8305 C145.671325,104.1075 145.650465,101.1395 145.852109,98 C142.424155,98.245 138.992725,98.483 135.585631,98.7665 C125.253096,99.6205 115.160449,100.6285 105.307688,101.794 C95.4584049,102.9595 86.2418675,104.181 77.6615527,105.462 C69.0812379,106.743 61.3005473,108.0065 54.3194808,109.249 C47.3384143,110.488 41.4942048,111.6535 36.7798989,112.742 C32.6705261,113.673 28.620256,114.625 24.6325651,115.5945 C20.6448743,116.5675 16.7475757,117.635 12.9406694,118.797 C12.0332699,119.0315 10.8685999,119.343 9.4501362,119.7315 C8.0316725,120.12 6.6410218,120.526 5.27818412,120.953 C3.91882307,121.38 2.7263401,121.8665 1.70073522,122.409 C0.671653704,122.9515 0.125823307,123.536 0.0667206528,124.1555 C-0.173166592,125.244 0.233598736,126 1.29049326,126.427 C2.34738779,126.854 3.66155269,127.0675 5.23298798,127.0675 C6.80789989,127.0675 8.42105469,126.9695 10.0828823,126.777 C11.7447098,126.5845 13.0901644,126.4095 14.1157693,126.252 C18.2286187,125.8635 22.3379915,125.4575 26.4473643,125.0305 C30.5567371,124.6035 34.6661099,124.1555 38.7720061,123.69 C46.8099671,122.913 55.5432534,122.1185 64.9718651,121.303 C74.3970002,120.4875 84.2636669,119.7105 94.5683885,118.972 C104.87311,118.2335 115.476822,117.558 126.386476,116.935 C134.021149,116.501 141.721877,116.1965 149.412175,115.8745 C149.158381,115.556 148.890681,115.2515 148.67513,114.8945 C147.308816,112.6265 146.425753,109.935 146.025941,106.8305" id="Fill-6"></path>
                </g>
            </g>
        </g>
    </g>
</svg>